<?xml version="1.0" encoding="utf-8"?>
<!-- Generator: Adobe Illustrator 23.0.5, SVG Export Plug-In . SVG Version: 6.00 Build 0)  -->
<svg version="1.1" baseProfile="tiny" id="Слой_1"
	 xmlns="http://www.w3.org/2000/svg" xmlns:xlink="http://www.w3.org/1999/xlink" x="0px" y="0px" viewBox="0 0 22 22.1"
	 xml:space="preserve">
<g>
	<path fill="#606061" d="M11,0C4.9,0,0,4.6,0,10.2c0,2,0.6,3.9,1.8,5.5l-1.4,5.4c-0.1,0.3,0,0.6,0.3,0.8C0.8,22,1,22.1,1.1,22.1
		c0.1,0,0.3,0,0.4-0.1l4.4-2.8c1.6,0.8,3.3,1.2,5.1,1.2c6.1,0,11-4.6,11-10.2S17.1,0,11,0z M11,18.9c-1.7,0-3.3-0.4-4.8-1.2
		c-0.2-0.1-0.5-0.1-0.8,0l-3.1,2l1-3.9c0.1-0.2,0-0.5-0.1-0.6c-1.1-1.5-1.7-3.2-1.7-4.9c0-4.8,4.3-8.7,9.5-8.7
		c5.2,0,9.5,3.9,9.5,8.7S16.2,18.9,11,18.9z"/>
	<path fill="#606061" d="M6.9,9.3c-0.7,0-1.3,0.6-1.3,1.3s0.6,1.3,1.3,1.3s1.3-0.6,1.3-1.3S7.6,9.3,6.9,9.3z"/>
	<path fill="#606061" d="M11,9.3c-0.7,0-1.3,0.6-1.3,1.3s0.6,1.3,1.3,1.3s1.3-0.6,1.3-1.3S11.7,9.3,11,9.3z"/>
	<path fill="#606061" d="M15.1,9.3c-0.7,0-1.3,0.6-1.3,1.3s0.6,1.3,1.3,1.3s1.3-0.6,1.3-1.3S15.8,9.3,15.1,9.3z"/>
</g>
</svg>
