<?xml version="1.0" encoding="utf-8"?>
<!-- Generator: Adobe Illustrator 23.0.5, SVG Export Plug-In . SVG Version: 6.00 Build 0)  -->
<svg version="1.1" baseProfile="tiny" id="Слой_1"
	 xmlns="http://www.w3.org/2000/svg" xmlns:xlink="http://www.w3.org/1999/xlink" x="0px" y="0px" viewBox="0 0 19.7 22.1"
	 xml:space="preserve">
<g>
	<path fill="#606061" d="M14.6,4.9c0-2.8-2.2-5-4.9-4.9C7.2,0.1,5.2,2.2,5.1,4.8c0,0.7,0.6,2.7,0.6,2.8c0,2.7,1.9,4.9,4.1,4.9
		S14,10.3,14,7.6C14,7.5,14.6,5.5,14.6,4.9z"/>
	<path fill="#606061" d="M19.1,14.9c-0.3-0.6-3.4-2.1-5.2-2.8c-1,1.3-2.4,2.2-4.1,2.2S6.8,13.3,5.8,12c-1.8,0.8-4.8,2.3-5.2,2.8
		c-0.5,0.8-0.7,1.8-0.6,2.8c0.1,1,0.2,2.1,0.2,2.1s3.6,2.2,9.3,2.3c0.1,0,0.2,0,0.4,0c0.1,0,0.2,0,0.4,0c5.7-0.1,9.3-2.3,9.3-2.3
		s0.1-1.1,0.2-2.1C19.8,16.6,19.6,15.7,19.1,14.9z"/>
</g>
</svg>
