<?xml version="1.0" encoding="utf-8"?>
<!-- Generator: Adobe Illustrator 23.0.5, SVG Export Plug-In . SVG Version: 6.00 Build 0)  -->
<svg version="1.1" baseProfile="tiny" id="Слой_1"
	 xmlns="http://www.w3.org/2000/svg" xmlns:xlink="http://www.w3.org/1999/xlink" x="0px" y="0px" viewBox="0 0 28.9 6.1"
	 xml:space="preserve">
<polygon fill="#606061" points="23.7,3.5 23.7,3.2 22.3,3.2 22.3,3.1 21.9,3.1 21.9,3.7 20.7,3.7 20.7,3.1 19.4,3.1 19.4,3.8 
	18.3,3.8 18.3,3 18.3,2.2 18,2.2 18,1.6 17.7,1.6 17.7,2.2 16.1,2.2 16.1,1.9 16.5,1.9 16.5,1.6 16.1,1.6 16.1,1.3 16.5,1.3 
	16.5,0.8 16.1,0.8 16.1,0 15.6,0 15.6,0.8 15.3,0.8 15.3,1.3 15.6,1.3 15.6,1.6 15.3,1.6 15.3,1.9 15.6,1.9 15.6,2.2 15.2,2.2 
	15.2,3 14.8,3 14.8,2.4 14.5,2.4 13.9,0 12.9,0 13.5,2.4 12.2,2.4 12.2,3 11.5,3 11.5,2.5 11.2,2.5 10.6,0 9.6,0 10.2,2.5 9.4,2.5 
	9.4,2.2 8.8,2.2 8.8,3 8.3,3 8.3,3.8 7.5,3.8 7.5,3 6,3 6,3.8 4.9,3.8 4.9,3.9 2,3.9 0,3.6 0.6,4.9 2.5,6.1 27.7,6.1 28.9,3.1 "/>
</svg>
