<?xml version="1.0" encoding="utf-8"?>
<!-- Generator: Adobe Illustrator 23.0.5, SVG Export Plug-In . SVG Version: 6.00 Build 0)  -->
<svg version="1.1" baseProfile="tiny" id="Слой_1"
	 xmlns="http://www.w3.org/2000/svg" xmlns:xlink="http://www.w3.org/1999/xlink" x="0px" y="0px" viewBox="0 0 18.8 22.1"
	 xml:space="preserve">
<g>
	<path fill="#606061" d="M10.2,0c0.1,0,0.2,0.1,0.3,0.2c0,0,0,0.1,0.1,0.1c0.3,1,0.7,2.1,1,3.1c0.3,0.9,0.6,1.7,0.8,2.6
		c0,0.1,0.1,0.2,0.1,0.3c0,0,0,0.1,0.1,0.1c0.5,0,1,0,1.5,0c0.2,0,0.5,0,0.7,0.1c0.1,0,0.2,0,0.2,0.1c0.1,0.1,0.1,0.1,0.1,0.2
		c0,0.2,0,0.4,0,0.6c0,0.2-0.1,0.3-0.3,0.4c-0.3,0-0.5,0.1-0.8,0.1c-0.4,0-0.7,0-1.1,0c-0.1,0-0.1,0,0,0.1c0.2,0.5,0.3,1,0.5,1.5
		c0,0,0,0.1,0.1,0.1c0.4,0,0.9,0.1,1.3,0.2c0.8,0.1,1.7,0.3,2.5,0.5c0.4,0.1,0.7,0.2,1,0.4c0.1,0.1,0.2,0.1,0.3,0.2
		c0.1,0.1,0.1,0.2,0,0.3c-0.1,0.1-0.2,0.2-0.3,0.3c-0.3,0.2-0.6,0.3-0.9,0.4c-0.6,0.2-1.3,0.3-2,0.4c-0.5,0.1-0.9,0.1-1.4,0.2
		c-0.2,0-0.3,0-0.5,0.1c0,0-0.1,0-0.1,0.1c-0.2,0.5-0.3,1-0.5,1.4c0,0,0,0.1,0,0.1c0,0,0,0,0,0c0,0,0,0,0,0c0.3,0,0.7,0,1,0
		c0.2,0,0.5,0,0.7,0.1c0.1,0,0.2,0,0.2,0.1c0.1,0.1,0.2,0.2,0.2,0.3c0,0.2,0,0.4,0,0.6c0,0.2-0.1,0.3-0.3,0.4
		c-0.2,0-0.3,0.1-0.5,0.1c0,0,0,0-0.1,0c-0.6,0-1.2,0-1.8,0c-0.1,0-0.1,0-0.1,0.1c-0.4,1.2-0.8,2.5-1.2,3.7
		c-0.3,0.8-0.5,1.6-0.8,2.3c-0.1,0.2-0.2,0.3-0.4,0.3c0,0,0,0,0,0c0,0-0.1,0-0.1,0c-0.1,0-0.1,0-0.2,0c-0.3,0-0.5-0.1-0.8-0.2
		c-0.1,0-0.1-0.1-0.2-0.2c0,0,0-0.1,0-0.1c0-0.2,0-0.4,0-0.5c0-0.2,0-0.4,0.1-0.6c0-0.2,0-0.3,0-0.5c0-0.2,0-0.4,0.1-0.6
		c0-0.2,0-0.3,0-0.5c0-0.2,0-0.4,0.1-0.6c0-0.2,0-0.3,0-0.5c0-0.2,0-0.4,0.1-0.6c0-0.1,0-0.3,0-0.4c0-0.2,0-0.4,0.1-0.6
		c0-0.2,0-0.3,0-0.5c0,0,0-0.1-0.1-0.1c-0.3,0-0.5,0-0.8-0.1c-0.2,0-0.3-0.2-0.3-0.4c0-0.2,0-0.4,0-0.6c0-0.2,0.1-0.3,0.3-0.3
		c0.2,0,0.4-0.1,0.5-0.1c0.1,0,0.1,0,0.1-0.1C9.1,13.6,9,13,8.9,12.5c0-0.1,0-0.1-0.1-0.1c-0.1,0-0.2,0-0.3,0c-0.3,0-0.6-0.1-1-0.1
		c-0.4-0.1-0.7-0.1-1.1-0.2c-0.4-0.1-0.7-0.1-1.1-0.2c-0.4-0.1-0.8-0.1-1.2-0.2c-0.3-0.1-0.7-0.1-1-0.2c0,0-0.1,0-0.1,0
		C2.7,12.4,2.4,13.2,2,14c-0.1,0.1-0.2,0.2-0.3,0.3c-0.2,0.1-0.5,0-0.7,0c-0.2,0-0.2-0.2-0.2-0.3c0-0.1,0-0.2,0-0.3
		c0-0.1,0-0.3,0-0.4c0-0.2,0-0.5,0-0.7c0-0.1,0-0.3,0-0.4c0-0.2,0-0.4,0-0.6c0,0,0-0.1,0-0.1c0.1-0.1,0.1-0.1,0.2-0.2
		c-0.3,0-0.6-0.1-0.9-0.1c0,0,0,0,0,0c0,0,0,0,0,0c0.2,0,0.4-0.1,0.6-0.1c0.1,0,0.2,0,0.2,0c-0.1-0.1-0.1-0.1-0.2-0.2
		c-0.1,0-0.1-0.1-0.1-0.1c0-0.2,0-0.4,0-0.6c0-0.3,0-0.6,0.1-0.9c0-0.3,0-0.6,0-0.9C0.8,8,0.8,7.9,1,7.8c0,0,0.1,0,0.1,0
		c0.2,0,0.4-0.1,0.6,0C1.8,7.8,1.9,7.9,2,8c0.3,0.6,0.6,1.2,0.9,1.9c0.1,0.2,0.2,0.4,0.3,0.6c0,0,0,0,0.1,0c0.4-0.1,0.7-0.1,1.1-0.2
		c0.5-0.1,0.9-0.1,1.4-0.2c0.6-0.1,1.2-0.2,1.8-0.3c0.5-0.1,1-0.1,1.4-0.2c0,0,0.1,0,0.1-0.1C9,9.2,9,8.8,9.1,8.4
		c0-0.2,0.1-0.3,0.1-0.5c0,0,0,0,0,0C9,7.9,8.8,7.8,8.6,7.8c-0.2,0-0.3-0.2-0.3-0.3c0-0.2,0-0.4,0-0.6c0-0.1,0-0.1,0.1-0.2
		c0-0.1,0.1-0.1,0.2-0.1c0.2,0,0.5-0.1,0.7-0.1c0,0,0.1,0,0.1,0c0,0,0,0,0,0c0,0,0-0.1,0-0.1c0-0.2,0-0.4-0.1-0.6c0-0.1,0-0.3,0-0.4
		c0-0.2,0-0.4-0.1-0.6c0-0.1,0-0.3,0-0.4c0-0.2,0-0.4-0.1-0.6c0-0.1,0-0.3,0-0.4c0-0.2,0-0.4-0.1-0.6c0-0.1,0-0.3,0-0.4
		c0-0.2,0-0.4-0.1-0.6C9,1.2,9,1,9,0.9c0-0.1,0-0.3,0-0.4C9,0.3,9,0.2,9.2,0.2c0,0,0,0,0.1,0C9.5,0.1,9.8,0,10,0
		C10.1,0,10.2,0,10.2,0z"/>
</g>
</svg>
