<?xml version="1.0" encoding="utf-8"?>
<!-- Generator: Adobe Illustrator 23.0.5, SVG Export Plug-In . SVG Version: 6.00 Build 0)  -->
<svg version="1.0" id="Слой_1" xmlns="http://www.w3.org/2000/svg" xmlns:xlink="http://www.w3.org/1999/xlink" x="0px" y="0px"
	 viewBox="0 0 19.7 22.1" enable-background="new 0 0 19.7 22.1" xml:space="preserve">
<rect fill="#EFF0F2" width="19.7" height="0.6"/>
<rect y="21.5" fill="#EFF0F2" width="19.7" height="0.6"/>
<path fill="#606061" d="M15.3,12.3l2.5-1.2l-2.5-1.2h-2.1c-0.1-0.4-0.4-1.2-0.4-1.2h1.8V7.4h-2.1c0,0-1.6-4.9-1.6-4.9H9.6
	c-0.1,0,0.3,4.9,0.3,4.9H9v1.2h0.7c0,0.1-0.2,1.3-0.3,1.3l-4.5,0.7c-0.1-0.2-0.9-2-1-2H3v2.1v0.2h0c0,0,0,0,0,0v0H2.2v0.3H3v0v0.2v2
	h1c0,0,0.6-1.3,0.9-1.9l4.6,0.7c0.1,0.4,0.2,1.3,0.2,1.3H9v1.2h0.9c0,0-0.3,4.8-0.3,4.8h1.3c0,0,0,0,0,0c0.2-0.6,1.6-4.8,1.6-4.8
	h2.1v-1.2h-1.8c0,0,0,0,0,0s0.3-0.8,0.4-1.2H15.3z"/>
</svg>
