<?xml version="1.0" encoding="utf-8"?>
<!-- Generator: Adobe Illustrator 23.0.5, SVG Export Plug-In . SVG Version: 6.00 Build 0)  -->
<svg version="1.1" baseProfile="tiny" id="Слой_1"
	 xmlns="http://www.w3.org/2000/svg" xmlns:xlink="http://www.w3.org/1999/xlink" x="0px" y="0px" viewBox="0 0 29 9.8"
	 xml:space="preserve">
<path fill="#606061" d="M29,1.3V0.8H18.1V0.6c0.1,0,0.3-0.1,0.3-0.3c0-0.2-0.1-0.3-0.3-0.3h-1.5c-0.2,0-0.3,0.1-0.3,0.3
	c0,0.2,0.1,0.3,0.3,0.3v0.2H5.8v0.5h11.3v1h-0.3c-0.1,0-0.2,0.1-0.2,0.2v0c0,0.1,0,0.1,0.1,0.1v0.7H5.8v0.5h10.9v0.7
	c0,0-0.1,0.1-0.1,0.1v0c0,0.1,0.1,0.2,0.2,0.2h0.3v0.5h-2.6L4.7,6.3L2.5,5.4L1.3,2h-1L0,6.9l15,2.9h10.1l2.7-0.4L28.7,8l-4-0.7
	l-1.6-1.5l-3-0.5h-2.5V4.9H18c0.1,0,0.2-0.1,0.2-0.2v0c0-0.1,0-0.1-0.1-0.1V3.9H29V3.4H18.1V2.6c0,0,0.1-0.1,0.1-0.1v0
	c0-0.1-0.1-0.2-0.2-0.2h-0.3v-1H29z"/>
</svg>
