<?xml version="1.0" encoding="utf-8"?>
<!-- Generator: Adobe Illustrator 23.0.5, SVG Export Plug-In . SVG Version: 6.00 Build 0)  -->
<svg version="1.1" id="Слой_1" xmlns="http://www.w3.org/2000/svg" xmlns:xlink="http://www.w3.org/1999/xlink" x="0px" y="0px"
	 viewBox="0 0 19.7 22.1" style="enable-background:new 0 0 19.7 22.1;" xml:space="preserve">
<style type="text/css">
	.st0{fill:#606061;}
	.st1{fill:#EFF0F2;}
</style>
<g>
	<path class="st0" d="M9.9,3.1c-4.4,0-7.9,3.3-7.9,7.3c0,1.4,0.4,2.8,1.3,4l-1,3.9c-0.1,0.2,0,0.4,0.2,0.6C2.5,18.9,2.7,19,2.7,19
		C2.8,19,3,19,3,18.9l3.2-2c1.1,0.6,2.4,0.9,3.7,0.9c4.4,0,7.9-3.3,7.9-7.3S14.2,3.1,9.9,3.1z M9.9,16.7c-1.2,0-2.4-0.3-3.4-0.9
		c-0.1-0.1-0.4-0.1-0.6,0l-2.2,1.4l0.7-2.8c0.1-0.1,0-0.4-0.1-0.4C3.5,13,3,11.7,3,10.5c0-3.4,3.1-6.2,6.8-6.2s6.8,2.8,6.8,6.2
		S13.6,16.7,9.9,16.7z"/>
	<path class="st0" d="M6.9,9.8C6.4,9.8,6,10.2,6,10.7c0,0.5,0.4,0.9,0.9,0.9s0.9-0.4,0.9-0.9C7.8,10.2,7.4,9.8,6.9,9.8z"/>
	<path class="st0" d="M9.9,9.8c-0.5,0-0.9,0.4-0.9,0.9c0,0.5,0.4,0.9,0.9,0.9s0.9-0.4,0.9-0.9C10.8,10.2,10.4,9.8,9.9,9.8z"/>
	<path class="st0" d="M12.8,9.8c-0.5,0-0.9,0.4-0.9,0.9c0,0.5,0.4,0.9,0.9,0.9c0.5,0,0.9-0.4,0.9-0.9C13.7,10.2,13.3,9.8,12.8,9.8z"
		/>
</g>
<rect class="st1" width="19.7" height="0.6"/>
<rect y="21.5" class="st1" width="19.7" height="0.6"/>
</svg>
