<?xml version="1.0" encoding="utf-8"?>
<!-- Generator: Adobe Illustrator 23.0.5, SVG Export Plug-In . SVG Version: 6.00 Build 0)  -->
<svg version="1.1" id="Слой_1" xmlns="http://www.w3.org/2000/svg" xmlns:xlink="http://www.w3.org/1999/xlink" x="0px" y="0px"
	 viewBox="0 0 19.7 22.1" style="enable-background:new 0 0 19.7 22.1;" xml:space="preserve">
<style type="text/css">
	.st0{fill:#606061;}
	.st1{fill:#EFF0F2;}
</style>
<g>
	<path class="st0" d="M13.4,6.5c0-2.1-1.6-3.7-3.6-3.6C7.9,3,6.4,4.5,6.4,6.4c0,0.5,0.4,2,0.4,2.1c0,2,1.4,3.6,3,3.6
		s3.1-1.6,3.1-3.6C12.9,8.4,13.4,7,13.4,6.5z"/>
	<path class="st0" d="M16.7,13.9c-0.2-0.4-2.5-1.5-3.8-2.1c-0.7,1-1.8,1.6-3,1.6s-2.2-0.7-2.9-1.7c-1.3,0.6-3.5,1.7-3.8,2.1
		c-0.4,0.6-0.5,1.3-0.4,2.1c0.1,0.7,0.1,1.5,0.1,1.5s2.7,1.6,6.8,1.7c0.1,0,0.1,0,0.3,0c0.1,0,0.1,0,0.3,0c4.2-0.1,6.8-1.7,6.8-1.7
		s0.1-0.8,0.1-1.5C17.2,15.1,17,14.5,16.7,13.9z"/>
</g>
<rect class="st1" width="19.7" height="0.6"/>
<rect y="21.5" class="st1" width="19.7" height="0.6"/>
</svg>
